<?xml version="1.0" encoding="UTF-8" standalone="no"?>
<!-- Created with Inkscape (http://www.inkscape.org/) -->
<svg xmlns:dc="http://purl.org/dc/elements/1.1/" xmlns:cc="http://creativecommons.org/ns#" xmlns:rdf="http://www.w3.org/1999/02/22-rdf-syntax-ns#" xmlns:svg="http://www.w3.org/2000/svg" xmlns="http://www.w3.org/2000/svg" xmlns:sodipodi="http://sodipodi.sourceforge.net/DTD/sodipodi-0.dtd" xmlns:inkscape="http://www.inkscape.org/namespaces/inkscape" width="318.98151mm" height="134.37097mm" viewBox="0 0 1130.2494 476.11761" id="svg4776" version="1.1" inkscape:version="0.91 r13725" sodipodi:docname="yunityLogoOnly1.svg">
  <defs id="defs4778"/>
  <sodipodi:namedview id="base" pagecolor="#ffffff" bordercolor="#666666" borderopacity="1.0" inkscape:pageopacity="0.0" inkscape:pageshadow="2" inkscape:zoom="0.061871843" inkscape:cx="-1170.4482" inkscape:cy="268.91211" inkscape:document-units="px" inkscape:current-layer="g3382" showgrid="false" fit-margin-top="0" fit-margin-left="0" fit-margin-right="0" fit-margin-bottom="0" inkscape:window-width="1366" inkscape:window-height="718" inkscape:window-x="0" inkscape:window-y="0" inkscape:window-maximized="1"/>
  <metadata id="metadata4781">
    <rdf:RDF>
      <cc:Work rdf:about="">
        <dc:format>image/svg+xml</dc:format>
        <dc:type rdf:resource="http://purl.org/dc/dcmitype/StillImage"/>
        <dc:title/>
      </cc:Work>
    </rdf:RDF>
  </metadata>
  <g inkscape:label="Ebene 1" inkscape:groupmode="layer" id="layer1" transform="translate(-32.23102,369.07276)"/>
  <g id="g4675" transform="translate(-1665.7263,281.15051)">
    <g id="g3382">
      <g transform="translate(1365.7263,-727.30984)" id="g3363">
        <path inkscape:connector-curvature="0" style="opacity:1;fill:#f1e7c9" d="m 1275.4053,577.8334 c 29.1039,25.43061 46.6228,62.72885 46.6228,106.24344 0,75.72674 -65.2719,141.56376 -151.1709,141.56376 -73.4662,0 -131.1089,-45.49255 -183.10041,-92.39789 l -69.22777,66.68471 c 69.7929,63.0114 150.04058,122.3495 250.63278,122.3495 151.1709,0 261.0876,-111.047 261.0876,-237.91751 0,-74.03135 -29.1039,-137.04275 -78.5523,-179.70967 z" class="st0" id="XMLID_7_"/>
        <path style="opacity:1;fill:#ee5732" inkscape:connector-curvature="0" d="m 1175.9433,542.79567 c 11.02,0 21.4748,1.13024 31.647,3.10819 l 82.2257,-79.11747 c -31.647,-13.28042 -67.5324,-20.62706 -106.8086,-20.62706 -139.3033,0 -230.28833,90.1374 -317.88267,172.08049 C 795.04926,552.4028 715.9318,474.13301 615.62216,452.09314 l 0,99.74451 c 71.20571,23.17014 127.15306,85.89897 180.83992,132.23919 C 731.19016,746.8057 652.0727,825.6406 554.30613,825.6406 c -84.20359,0 -146.08474,-59.62066 -146.08474,-141.56376 0,-71.48827 58.4904,-134.49966 137.3253,-140.9986 l 0,-96.35378 C 402.57013,453.78853 300,561.44478 300,684.07684 c 0,138.45557 103.13526,237.91754 247.24207,237.91754 133.08687,0 222.09401,-82.22568 306.2976,-161.34313 3.95586,-3.67329 7.62918,-7.34661 11.58506,-10.73736 l 78.8349,-75.72672 c 63.29397,-60.46834 139.30327,-131.3915 231.98367,-131.3915 z" class="st1" id="XMLID_15_-4"/>
      </g>
    </g>
  </g>
</svg>